<svg width="39" height="39" viewBox="0 0 39 39" fill="none" xmlns="http://www.w3.org/2000/svg">
<g clip-path="url(#clip0_120_4224)">
<path d="M9.38135 33.9314H7.14795V31.698L9.38135 33.9314ZM9.9585 23.5154L9.8335 23.3904L7.14795 26.0759V7.9314H9.9585V23.5154Z" fill="#4A8F75"/>
<path d="M9.93994 33.9119L7.1665 31.1384V7.9314H9.93994V33.9119Z" fill="#8F624A"/>
<path d="M11.3643 9.33691H17.0598H22.7553C30.2306 9.33691 29.8747 18.472 22.7553 18.472H11.3643" stroke="#BF8262" stroke-width="2.81081"/>
<path d="M11.3643 22.6882H22.7553C30.2306 22.6882 29.8747 32.5261 22.7553 32.5261H11.3643" stroke="#8F624A" stroke-width="2.81081"/>
<path d="M26.7378 18.8596C28.233 19.6284 29.9622 19.9045 31.1479 19.9045V21.9045C29.6056 21.9045 27.2904 21.5301 25.3247 20.3645C25.0023 20.1733 24.6909 19.958 24.3921 19.7219C25.245 19.5837 26.0388 19.2856 26.7378 18.8596ZM31.1479 7.90454C29.1659 7.90454 27.7052 8.28021 26.6304 8.8313C25.9206 8.41769 25.1177 8.13133 24.2573 8.01001C25.7691 6.75121 27.9984 5.90454 31.1479 5.90454V7.90454Z" fill="#62A5BF"/>
<path fill-rule="evenodd" clip-rule="evenodd" d="M22.7538 10.7468C23.3214 10.7468 23.865 10.8185 24.3661 10.95C23.755 11.9915 23.5909 13.0967 23.6454 13.8601L23.6484 13.8953V13.9314C23.6484 15.1162 23.9424 16.0675 24.4208 16.8386C24.0401 16.9424 23.6347 17.0125 23.2118 17.0417L22.5146 17.0535C22.4313 17.0505 22.3486 17.0458 22.2665 17.0398C21.8818 16.1631 21.6545 15.146 21.6493 13.9724C21.5904 13.0786 21.7307 11.9254 22.2236 10.7683C22.3975 10.7543 22.5745 10.7468 22.7538 10.7468Z" fill="#62A5BF"/>
</g>
<defs>
<clipPath id="clip0_120_4224">
<rect width="39" height="39" fill="white"/>
</clipPath>
</defs>
</svg>
