<svg width="134" height="39" viewBox="0 0 134 39" fill="none" xmlns="http://www.w3.org/2000/svg">
<path d="M9.38135 33.9314H7.14795V31.698L9.38135 33.9314ZM9.9585 23.5154L9.8335 23.3904L7.14795 26.0759V7.9314H9.9585V23.5154Z" fill="#4A8F75"/>
<path d="M9.93994 33.9119L7.1665 31.1384V7.9314H9.93994V33.9119Z" fill="#8F624A"/>
<path d="M11.3643 9.33691H17.0598H22.7553C30.2306 9.33691 29.8747 18.472 22.7553 18.472H11.3643" stroke="#BF8262" stroke-width="2.81081"/>
<path d="M11.3643 22.6882H22.7553C30.2306 22.6882 29.8747 32.5261 22.7553 32.5261H11.3643" stroke="#8F624A" stroke-width="2.81081"/>
<path d="M26.7378 18.8596C28.233 19.6284 29.9622 19.9045 31.1479 19.9045V21.9045C29.6056 21.9045 27.2904 21.5301 25.3247 20.3645C25.0023 20.1733 24.6909 19.958 24.3921 19.7219C25.245 19.5837 26.0388 19.2856 26.7378 18.8596ZM31.1479 7.90454C29.1659 7.90454 27.7052 8.28021 26.6304 8.8313C25.9206 8.41769 25.1177 8.13133 24.2573 8.01001C25.7691 6.75121 27.9984 5.90454 31.1479 5.90454V7.90454Z" fill="#62A5BF"/>
<path fill-rule="evenodd" clip-rule="evenodd" d="M22.7538 10.7468C23.3214 10.7468 23.865 10.8185 24.3661 10.95C23.755 11.9915 23.5909 13.0967 23.6454 13.8601L23.6484 13.8953V13.9314C23.6484 15.1162 23.9424 16.0675 24.4208 16.8386C24.0401 16.9424 23.6347 17.0125 23.2118 17.0417L22.5146 17.0535C22.4313 17.0505 22.3486 17.0458 22.2665 17.0398C21.8818 16.1631 21.6545 15.146 21.6493 13.9724C21.5904 13.0786 21.7307 11.9254 22.2236 10.7683C22.3975 10.7543 22.5745 10.7468 22.7538 10.7468Z" fill="#62A5BF"/>
<path d="M39.0262 20.9216C38.9842 20.7116 38.9562 20.5366 38.9422 20.3966C38.9422 20.2426 38.9352 20.0676 38.9212 19.8716C38.4452 20.3476 37.9342 20.6976 37.3882 20.9216C36.8562 21.1456 36.3032 21.2576 35.7292 21.2576C34.7772 21.2576 34.0422 20.9986 33.5242 20.4806C33.0202 19.9626 32.7682 19.3256 32.7682 18.5696C32.7682 17.8976 32.9502 17.3306 33.3142 16.8686C33.6782 16.3926 34.1542 16.0076 34.7422 15.7136C35.3302 15.4056 35.9812 15.1746 36.6952 15.0206C37.4092 14.8526 38.1162 14.7616 38.8162 14.7476V13.5926C38.8162 13.1866 38.7672 12.8156 38.6692 12.4796C38.5852 12.1296 38.4242 11.8566 38.1862 11.6606C37.9482 11.4506 37.5982 11.3456 37.1362 11.3456C36.8282 11.3596 36.5132 11.4296 36.1912 11.5556C35.8832 11.6676 35.6382 11.8496 35.4562 12.1016C35.5682 12.2276 35.6382 12.3676 35.6662 12.5216C35.6942 12.6616 35.7082 12.7876 35.7082 12.8996C35.7082 13.1516 35.6102 13.4176 35.4142 13.6976C35.2182 13.9636 34.9032 14.0896 34.4692 14.0756C34.0912 14.0616 33.7972 13.9286 33.5872 13.6766C33.3912 13.4246 33.2932 13.1236 33.2932 12.7736C33.2932 12.2416 33.4822 11.7796 33.8602 11.3876C34.2522 10.9816 34.7772 10.6666 35.4352 10.4426C36.0932 10.2046 36.8282 10.0856 37.6402 10.0856C38.8442 10.0856 39.7682 10.4006 40.4122 11.0306C41.0562 11.6606 41.3712 12.6686 41.3572 14.0546C41.3572 14.5446 41.3572 14.9926 41.3572 15.3986C41.3572 15.7906 41.3502 16.1896 41.3362 16.5956C41.3362 16.9876 41.3362 17.4286 41.3362 17.9186C41.3362 18.1286 41.3292 18.3946 41.3152 18.7166C41.3012 19.0246 41.2802 19.3326 41.2522 19.6406C41.5042 19.6126 41.7562 19.5986 42.0082 19.5986C42.2742 19.5846 42.4912 19.5706 42.6592 19.5566V20.9216H39.0262ZM38.7952 15.9866C38.3752 16.0146 37.9622 16.0846 37.5562 16.1966C37.1502 16.2946 36.7862 16.4346 36.4642 16.6166C36.1422 16.7986 35.8832 17.0296 35.6872 17.3096C35.5052 17.5756 35.4212 17.8836 35.4352 18.2336C35.4492 18.6676 35.5892 18.9896 35.8552 19.1996C36.1212 19.3956 36.4292 19.4936 36.7792 19.4936C37.1852 19.4936 37.5492 19.4096 37.8712 19.2416C38.2072 19.0736 38.5152 18.8496 38.7952 18.5696C38.7952 18.4296 38.7952 18.2826 38.7952 18.1286C38.7952 17.9746 38.7952 17.8206 38.7952 17.6666C38.7952 17.4706 38.7952 17.2256 38.7952 16.9316C38.7952 16.6376 38.7952 16.3226 38.7952 15.9866ZM43.9504 19.8086C44.3564 19.8086 44.6434 19.7246 44.8114 19.5566C44.9794 19.3746 45.0844 19.1226 45.1264 18.8006C45.1684 18.4786 45.1894 18.1146 45.1894 17.7086V13.7606C45.1894 13.5086 45.1964 13.2426 45.2104 12.9626C45.2244 12.6826 45.2454 12.3956 45.2734 12.1016C45.0354 12.1156 44.7764 12.1296 44.4964 12.1436C44.2164 12.1436 43.9854 12.1506 43.8034 12.1646V10.8206H44.5804C45.1404 10.8206 45.6094 10.7576 45.9874 10.6316C46.3654 10.4916 46.6314 10.3516 46.7854 10.2116H47.6674C47.6954 10.3796 47.7164 10.6456 47.7304 11.0096C47.7444 11.3736 47.7514 11.7376 47.7514 12.1016C48.0734 11.6816 48.4094 11.3246 48.7594 11.0306C49.1094 10.7226 49.4664 10.4916 49.8304 10.3376C50.2084 10.1696 50.5934 10.0856 50.9854 10.0856C51.4334 10.0856 51.8254 10.2116 52.1614 10.4636C52.5114 10.7156 52.6864 11.1216 52.6864 11.6816C52.6864 11.8636 52.6374 12.0596 52.5394 12.2696C52.4554 12.4796 52.3154 12.6546 52.1194 12.7946C51.9374 12.9346 51.6854 13.0046 51.3634 13.0046C51.0694 13.0046 50.7894 12.9136 50.5234 12.7316C50.2714 12.5356 50.1384 12.2276 50.1244 11.8076C49.8304 11.7936 49.5224 11.8986 49.2004 12.1226C48.8924 12.3466 48.6124 12.6196 48.3604 12.9416C48.1084 13.2636 47.9124 13.5926 47.7724 13.9286L47.7934 17.9186C47.7934 18.1426 47.7864 18.4156 47.7724 18.7376C47.7584 19.0456 47.7374 19.3466 47.7094 19.6406C47.9334 19.6126 48.1714 19.5986 48.4234 19.5986C48.6754 19.5846 48.8854 19.5776 49.0534 19.5776V20.9216H43.9504V19.8086ZM53.4816 26.2766V25.1636C53.8876 25.1636 54.1746 25.0726 54.3426 24.8906C54.5246 24.7226 54.6366 24.4776 54.6786 24.1556C54.7206 23.8336 54.7416 23.4696 54.7416 23.0636L54.7626 13.7606C54.7626 13.5086 54.7626 13.2426 54.7626 12.9626C54.7766 12.6826 54.8046 12.3956 54.8466 12.1016C54.6086 12.1156 54.3426 12.1296 54.0486 12.1436C53.7686 12.1576 53.5376 12.1716 53.3556 12.1856V10.8206C53.9996 10.8206 54.5176 10.7926 54.9096 10.7366C55.3156 10.6666 55.6236 10.5826 55.8336 10.4846C56.0576 10.3866 56.2186 10.2956 56.3166 10.2116H57.2196C57.2476 10.3516 57.2686 10.5196 57.2826 10.7156C57.2966 10.9116 57.3106 11.0936 57.3246 11.2616C57.7866 10.8556 58.2766 10.5616 58.7946 10.3796C59.3126 10.1836 59.8096 10.0856 60.2856 10.0856C61.1256 10.0856 61.8746 10.3026 62.5326 10.7366C63.1906 11.1566 63.7086 11.7656 64.0866 12.5636C64.4646 13.3476 64.6536 14.2786 64.6536 15.3566C64.6536 16.5046 64.4226 17.5266 63.9606 18.4226C63.5126 19.3046 62.8966 19.9976 62.1126 20.5016C61.3286 21.0056 60.4256 21.2576 59.4036 21.2576C58.9836 21.2576 58.6056 21.2086 58.2696 21.1106C57.9336 21.0266 57.6186 20.9146 57.3246 20.7746V23.2736C57.3246 23.4976 57.3176 23.7636 57.3036 24.0716C57.3036 24.3936 57.2826 24.7016 57.2406 24.9956C57.4646 24.9676 57.7026 24.9466 57.9546 24.9326C58.2066 24.9326 58.4166 24.9326 58.5846 24.9326V26.2766H53.4816ZM59.1726 19.9346C59.8166 19.9206 60.3346 19.7246 60.7266 19.3466C61.1326 18.9546 61.4266 18.4366 61.6086 17.7926C61.7906 17.1486 61.8816 16.4486 61.8816 15.6926C61.8816 15.0066 61.7906 14.3556 61.6086 13.7396C61.4406 13.1236 61.1676 12.6266 60.7896 12.2486C60.4116 11.8706 59.9076 11.6816 59.2776 11.6816C58.8856 11.6956 58.5146 11.7936 58.1646 11.9756C57.8286 12.1576 57.5486 12.3956 57.3246 12.6896C57.3246 12.9976 57.3246 13.3126 57.3246 13.6346C57.3246 13.9566 57.3246 14.2996 57.3246 14.6636C57.3246 15.0276 57.3246 15.4406 57.3246 15.9026C57.3246 16.3506 57.3246 16.8616 57.3246 17.4356C57.3246 18.0096 57.3246 18.6676 57.3246 19.4096C57.5486 19.5636 57.8216 19.6896 58.1436 19.7876C58.4656 19.8856 58.8086 19.9346 59.1726 19.9346ZM66.2834 19.8086C66.6894 19.8086 66.9764 19.7246 67.1444 19.5566C67.3124 19.3746 67.4174 19.1226 67.4594 18.8006C67.5014 18.4786 67.5224 18.1146 67.5224 17.7086V13.7816C67.5224 13.5436 67.5294 13.2846 67.5434 13.0046C67.5574 12.7106 67.5784 12.4096 67.6064 12.1016C67.3684 12.1156 67.1094 12.1296 66.8294 12.1436C66.5494 12.1576 66.3184 12.1716 66.1364 12.1856V10.8206C66.7664 10.8206 67.2844 10.7926 67.6904 10.7366C68.1104 10.6666 68.4324 10.5826 68.6564 10.4846C68.8944 10.3866 69.0624 10.2956 69.1604 10.2116H70.1054V17.9186C70.1054 18.1426 70.0984 18.4156 70.0844 18.7376C70.0844 19.0456 70.0634 19.3466 70.0214 19.6406C70.2454 19.6126 70.4834 19.5986 70.7354 19.5986C71.0014 19.5846 71.2184 19.5776 71.3864 19.5776V20.9216H66.2834V19.8086ZM68.6984 8.40563C68.2924 8.40563 67.9494 8.25863 67.6694 7.96463C67.3894 7.65663 67.2494 7.28563 67.2494 6.85163C67.2494 6.41763 67.3894 6.04663 67.6694 5.73863C67.9634 5.43063 68.3064 5.27663 68.6984 5.27663C69.1044 5.27663 69.4404 5.43063 69.7064 5.73863C69.9864 6.04663 70.1264 6.41763 70.1264 6.85163C70.1264 7.28563 69.9934 7.65663 69.7274 7.96463C69.4614 8.25863 69.1184 8.40563 68.6984 8.40563ZM72.8254 20.9216V19.8086C73.2314 19.8086 73.5184 19.7246 73.6864 19.5566C73.8544 19.3746 73.9594 19.1226 74.0014 18.8006C74.0434 18.4786 74.0644 18.1146 74.0644 17.7086V13.7606C74.0644 13.5086 74.0714 13.2426 74.0854 12.9626C74.0994 12.6826 74.1204 12.3956 74.1484 12.1016C73.9244 12.1156 73.6654 12.1296 73.3714 12.1436C73.0914 12.1576 72.8604 12.1716 72.6784 12.1856V10.8206C73.3084 10.8206 73.8264 10.7926 74.2324 10.7366C74.6384 10.6666 74.9534 10.5826 75.1774 10.4846C75.4014 10.3866 75.5624 10.2956 75.6604 10.2116H76.5424C76.5704 10.3656 76.5844 10.4916 76.5844 10.5896C76.5844 10.6876 76.5914 10.7926 76.6054 10.9046C76.6194 11.0026 76.6404 11.1496 76.6684 11.3456C76.9484 11.1076 77.2704 10.8976 77.6344 10.7156C78.0124 10.5196 78.3904 10.3656 78.7684 10.2536C79.1464 10.1416 79.4964 10.0856 79.8184 10.0856C81.0784 10.0856 81.9814 10.4566 82.5274 11.1986C83.0734 11.9406 83.3464 13.1236 83.3464 14.7476V17.9186C83.3464 18.1426 83.3394 18.4156 83.3254 18.7376C83.3254 19.0456 83.3044 19.3466 83.2624 19.6406C83.5004 19.6126 83.7454 19.5986 83.9974 19.5986C84.2494 19.5846 84.4594 19.5776 84.6274 19.5776V20.9216H79.5244V19.8086C79.9304 19.8086 80.2174 19.7246 80.3854 19.5566C80.5674 19.3746 80.6794 19.1226 80.7214 18.8006C80.7634 18.4786 80.7844 18.1146 80.7844 17.7086L80.7634 14.7266C80.7634 13.7186 80.6094 12.9696 80.3014 12.4796C80.0074 11.9756 79.5174 11.7236 78.8314 11.7236C78.4254 11.7376 78.0264 11.8356 77.6344 12.0176C77.2424 12.1996 76.9134 12.4306 76.6474 12.7106C76.6614 12.8786 76.6684 13.0536 76.6684 13.2356C76.6684 13.4176 76.6684 13.5996 76.6684 13.7816L76.6474 17.9186C76.6474 18.1426 76.6404 18.4156 76.6264 18.7376C76.6264 19.0456 76.6054 19.3466 76.5634 19.6406C76.7874 19.6126 77.0254 19.5986 77.2774 19.5986C77.5434 19.5846 77.7604 19.5776 77.9284 19.5776V20.9216H72.8254ZM89.9633 21.2576C89.5713 21.2576 89.1863 21.2086 88.8083 21.1106C88.4443 21.0126 88.1083 20.8306 87.8003 20.5646C87.5063 20.2986 87.2683 19.9066 87.0863 19.3886C86.9043 18.8566 86.8133 18.1566 86.8133 17.2886L86.8553 11.8706L85.3643 11.8916V10.4216C85.7843 10.4076 86.1903 10.2676 86.5823 10.0016C86.9743 9.72163 87.3173 9.35763 87.6113 8.90963C87.9053 8.46163 88.1013 7.98563 88.1993 7.48163H89.4803L89.4593 10.4216H92.4203V11.7656L89.4593 11.8286L89.4383 17.2256C89.4383 17.6456 89.4733 18.0376 89.5433 18.4016C89.6273 18.7516 89.7673 19.0316 89.9633 19.2416C90.1733 19.4516 90.4533 19.5566 90.8033 19.5566C91.0693 19.5566 91.3703 19.4726 91.7063 19.3046C92.0563 19.1366 92.4063 18.8006 92.7563 18.2966L93.6173 19.0736C93.2673 19.6056 92.9033 20.0186 92.5253 20.3126C92.1613 20.6066 91.8043 20.8236 91.4543 20.9636C91.1183 21.1036 90.8173 21.1876 90.5513 21.2156C90.2853 21.2436 90.0893 21.2576 89.9633 21.2576ZM99.3776 21.2576C98.3696 21.2576 97.4736 21.0336 96.6896 20.5856C95.9056 20.1236 95.2966 19.4796 94.8626 18.6536C94.4286 17.8136 94.2116 16.8266 94.2116 15.6926C94.2116 14.7126 94.4286 13.7956 94.8626 12.9416C95.2966 12.0876 95.9056 11.4016 96.6896 10.8836C97.4876 10.3516 98.4116 10.0856 99.4616 10.0856C100.05 10.0856 100.617 10.1696 101.163 10.3376C101.709 10.5056 102.199 10.7856 102.633 11.1776C103.067 11.5696 103.41 12.0876 103.662 12.7316C103.928 13.3756 104.054 14.1596 104.04 15.0836L96.9836 15.2096C96.9836 16.0776 97.0816 16.8476 97.2776 17.5196C97.4876 18.1776 97.8236 18.7026 98.2856 19.0946C98.7476 19.4726 99.3566 19.6616 100.113 19.6616C100.449 19.6616 100.806 19.6056 101.184 19.4936C101.576 19.3676 101.961 19.1856 102.339 18.9476C102.717 18.6956 103.053 18.3876 103.347 18.0236L104.145 18.7586C103.683 19.4306 103.172 19.9486 102.612 20.3126C102.052 20.6766 101.492 20.9216 100.932 21.0476C100.372 21.1876 99.8536 21.2576 99.3776 21.2576ZM97.0886 13.9496H101.457C101.443 13.3896 101.359 12.9206 101.205 12.5426C101.065 12.1506 100.855 11.8566 100.575 11.6606C100.295 11.4506 99.9516 11.3456 99.5456 11.3456C98.8596 11.3456 98.3066 11.5766 97.8866 12.0386C97.4806 12.4866 97.2146 13.1236 97.0886 13.9496ZM105.679 19.8086C106.085 19.8086 106.372 19.7246 106.54 19.5566C106.708 19.3746 106.813 19.1226 106.855 18.8006C106.897 18.4786 106.918 18.1146 106.918 17.7086V13.7606C106.918 13.5086 106.925 13.2426 106.939 12.9626C106.953 12.6826 106.974 12.3956 107.002 12.1016C106.764 12.1156 106.505 12.1296 106.225 12.1436C105.945 12.1436 105.714 12.1506 105.532 12.1646V10.8206H106.309C106.869 10.8206 107.338 10.7576 107.716 10.6316C108.094 10.4916 108.36 10.3516 108.514 10.2116H109.396C109.424 10.3796 109.445 10.6456 109.459 11.0096C109.473 11.3736 109.48 11.7376 109.48 12.1016C109.802 11.6816 110.138 11.3246 110.488 11.0306C110.838 10.7226 111.195 10.4916 111.559 10.3376C111.937 10.1696 112.322 10.0856 112.714 10.0856C113.162 10.0856 113.554 10.2116 113.89 10.4636C114.24 10.7156 114.415 11.1216 114.415 11.6816C114.415 11.8636 114.366 12.0596 114.268 12.2696C114.184 12.4796 114.044 12.6546 113.848 12.7946C113.666 12.9346 113.414 13.0046 113.092 13.0046C112.798 13.0046 112.518 12.9136 112.252 12.7316C112 12.5356 111.867 12.2276 111.853 11.8076C111.559 11.7936 111.251 11.8986 110.929 12.1226C110.621 12.3466 110.341 12.6196 110.089 12.9416C109.837 13.2636 109.641 13.5926 109.501 13.9286L109.522 17.9186C109.522 18.1426 109.515 18.4156 109.501 18.7376C109.487 19.0456 109.466 19.3466 109.438 19.6406C109.662 19.6126 109.9 19.5986 110.152 19.5986C110.404 19.5846 110.614 19.5776 110.782 19.5776V20.9216H105.679V19.8086ZM115.42 19.8086C115.826 19.8086 116.113 19.7246 116.281 19.5566C116.449 19.3746 116.554 19.1226 116.596 18.8006C116.638 18.4786 116.659 18.1146 116.659 17.7086V13.7816C116.659 13.5436 116.666 13.2846 116.68 13.0046C116.694 12.7106 116.715 12.4096 116.743 12.1016C116.505 12.1156 116.246 12.1296 115.966 12.1436C115.686 12.1576 115.455 12.1716 115.273 12.1856V10.8206C115.903 10.8206 116.421 10.7926 116.827 10.7366C117.247 10.6666 117.569 10.5826 117.793 10.4846C118.031 10.3866 118.199 10.2956 118.297 10.2116H119.242V17.9186C119.242 18.1426 119.235 18.4156 119.221 18.7376C119.221 19.0456 119.2 19.3466 119.158 19.6406C119.382 19.6126 119.62 19.5986 119.872 19.5986C120.138 19.5846 120.355 19.5776 120.523 19.5776V20.9216H115.42V19.8086ZM116.722 8.95163L115.882 8.21663L117.625 5.31863C117.793 5.05263 117.982 4.87063 118.192 4.77263C118.402 4.66063 118.612 4.61163 118.822 4.62563C119.046 4.63963 119.235 4.70963 119.389 4.83563C119.557 4.98963 119.662 5.17863 119.704 5.40263C119.746 5.61263 119.725 5.83663 119.641 6.07463C119.571 6.29863 119.424 6.51563 119.2 6.72563L116.722 8.95163ZM127.989 20.9216C127.947 20.7116 127.919 20.5366 127.905 20.3966C127.905 20.2426 127.898 20.0676 127.884 19.8716C127.408 20.3476 126.897 20.6976 126.351 20.9216C125.819 21.1456 125.266 21.2576 124.692 21.2576C123.74 21.2576 123.005 20.9986 122.487 20.4806C121.983 19.9626 121.731 19.3256 121.731 18.5696C121.731 17.8976 121.913 17.3306 122.277 16.8686C122.641 16.3926 123.117 16.0076 123.705 15.7136C124.293 15.4056 124.944 15.1746 125.658 15.0206C126.372 14.8526 127.079 14.7616 127.779 14.7476V13.5926C127.779 13.1866 127.73 12.8156 127.632 12.4796C127.548 12.1296 127.387 11.8566 127.149 11.6606C126.911 11.4506 126.561 11.3456 126.099 11.3456C125.791 11.3596 125.476 11.4296 125.154 11.5556C124.846 11.6676 124.601 11.8496 124.419 12.1016C124.531 12.2276 124.601 12.3676 124.629 12.5216C124.657 12.6616 124.671 12.7876 124.671 12.8996C124.671 13.1516 124.573 13.4176 124.377 13.6976C124.181 13.9636 123.866 14.0896 123.432 14.0756C123.054 14.0616 122.76 13.9286 122.55 13.6766C122.354 13.4246 122.256 13.1236 122.256 12.7736C122.256 12.2416 122.445 11.7796 122.823 11.3876C123.215 10.9816 123.74 10.6666 124.398 10.4426C125.056 10.2046 125.791 10.0856 126.603 10.0856C127.807 10.0856 128.731 10.4006 129.375 11.0306C130.019 11.6606 130.334 12.6686 130.32 14.0546C130.32 14.5446 130.32 14.9926 130.32 15.3986C130.32 15.7906 130.313 16.1896 130.299 16.5956C130.299 16.9876 130.299 17.4286 130.299 17.9186C130.299 18.1286 130.292 18.3946 130.278 18.7166C130.264 19.0246 130.243 19.3326 130.215 19.6406C130.467 19.6126 130.719 19.5986 130.971 19.5986C131.237 19.5846 131.454 19.5706 131.622 19.5566V20.9216H127.989ZM127.758 15.9866C127.338 16.0146 126.925 16.0846 126.519 16.1966C126.113 16.2946 125.749 16.4346 125.427 16.6166C125.105 16.7986 124.846 17.0296 124.65 17.3096C124.468 17.5756 124.384 17.8836 124.398 18.2336C124.412 18.6676 124.552 18.9896 124.818 19.1996C125.084 19.3956 125.392 19.4936 125.742 19.4936C126.148 19.4936 126.512 19.4096 126.834 19.2416C127.17 19.0736 127.478 18.8496 127.758 18.5696C127.758 18.4296 127.758 18.2826 127.758 18.1286C127.758 17.9746 127.758 17.8206 127.758 17.6666C127.758 17.4706 127.758 17.2256 127.758 16.9316C127.758 16.6376 127.758 16.3226 127.758 15.9866Z" fill="#62A5BF"/>
<path d="M35.5076 37.5884C35.4656 37.3784 35.4376 37.2034 35.4236 37.0634C35.4236 36.9094 35.4166 36.7344 35.4026 36.5384C34.9266 37.0144 34.4156 37.3644 33.8696 37.5884C33.3376 37.8124 32.7846 37.9244 32.2106 37.9244C31.2586 37.9244 30.5236 37.6654 30.0056 37.1474C29.5016 36.6294 29.2496 35.9924 29.2496 35.2364C29.2496 34.5644 29.4316 33.9974 29.7956 33.5354C30.1596 33.0594 30.6356 32.6744 31.2236 32.3804C31.8116 32.0724 32.4626 31.8414 33.1766 31.6874C33.8906 31.5194 34.5976 31.4284 35.2976 31.4144V30.2594C35.2976 29.8534 35.2486 29.4824 35.1506 29.1464C35.0666 28.7964 34.9056 28.5234 34.6676 28.3274C34.4296 28.1174 34.0796 28.0124 33.6176 28.0124C33.3096 28.0264 32.9946 28.0964 32.6726 28.2224C32.3646 28.3344 32.1196 28.5164 31.9376 28.7684C32.0496 28.8944 32.1196 29.0344 32.1476 29.1884C32.1756 29.3284 32.1896 29.4544 32.1896 29.5664C32.1896 29.8184 32.0916 30.0844 31.8956 30.3644C31.6996 30.6304 31.3846 30.7564 30.9506 30.7424C30.5726 30.7284 30.2786 30.5954 30.0686 30.3434C29.8726 30.0914 29.7746 29.7904 29.7746 29.4404C29.7746 28.9084 29.9636 28.4464 30.3416 28.0544C30.7336 27.6484 31.2586 27.3334 31.9166 27.1094C32.5746 26.8714 33.3096 26.7524 34.1216 26.7524C35.3256 26.7524 36.2496 27.0674 36.8936 27.6974C37.5376 28.3274 37.8526 29.3354 37.8386 30.7214C37.8386 31.2114 37.8386 31.6594 37.8386 32.0654C37.8386 32.4574 37.8316 32.8564 37.8176 33.2624C37.8176 33.6544 37.8176 34.0954 37.8176 34.5854C37.8176 34.7954 37.8106 35.0614 37.7966 35.3834C37.7826 35.6914 37.7616 35.9994 37.7336 36.3074C37.9856 36.2794 38.2376 36.2654 38.4896 36.2654C38.7556 36.2514 38.9726 36.2374 39.1406 36.2234V37.5884H35.5076ZM35.2766 32.6534C34.8566 32.6814 34.4436 32.7514 34.0376 32.8634C33.6316 32.9614 33.2676 33.1014 32.9456 33.2834C32.6236 33.4654 32.3646 33.6964 32.1686 33.9764C31.9866 34.2424 31.9026 34.5504 31.9166 34.9004C31.9306 35.3344 32.0706 35.6564 32.3366 35.8664C32.6026 36.0624 32.9106 36.1604 33.2606 36.1604C33.6666 36.1604 34.0306 36.0764 34.3526 35.9084C34.6886 35.7404 34.9966 35.5164 35.2766 35.2364C35.2766 35.0964 35.2766 34.9494 35.2766 34.7954C35.2766 34.6414 35.2766 34.4874 35.2766 34.3334C35.2766 34.1374 35.2766 33.8924 35.2766 33.5984C35.2766 33.3044 35.2766 32.9894 35.2766 32.6534ZM40.4318 36.4754C40.8378 36.4754 41.1248 36.3914 41.2928 36.2234C41.4608 36.0414 41.5658 35.7894 41.6078 35.4674C41.6498 35.1454 41.6708 34.7814 41.6708 34.3754V30.4274C41.6708 30.1754 41.6778 29.9094 41.6918 29.6294C41.7058 29.3494 41.7268 29.0624 41.7548 28.7684C41.5168 28.7824 41.2578 28.7964 40.9778 28.8104C40.6978 28.8104 40.4668 28.8174 40.2848 28.8314V27.4874H41.0618C41.6218 27.4874 42.0908 27.4244 42.4688 27.2984C42.8468 27.1584 43.1128 27.0184 43.2668 26.8784H44.1488C44.1768 27.0464 44.1978 27.3124 44.2118 27.6764C44.2258 28.0404 44.2328 28.4044 44.2328 28.7684C44.5548 28.3484 44.8908 27.9914 45.2408 27.6974C45.5908 27.3894 45.9478 27.1584 46.3118 27.0044C46.6898 26.8364 47.0748 26.7524 47.4668 26.7524C47.9148 26.7524 48.3068 26.8784 48.6428 27.1304C48.9928 27.3824 49.1678 27.7884 49.1678 28.3484C49.1678 28.5304 49.1188 28.7264 49.0208 28.9364C48.9368 29.1464 48.7968 29.3214 48.6008 29.4614C48.4188 29.6014 48.1668 29.6714 47.8448 29.6714C47.5508 29.6714 47.2708 29.5804 47.0048 29.3984C46.7528 29.2024 46.6198 28.8944 46.6058 28.4744C46.3118 28.4604 46.0038 28.5654 45.6818 28.7894C45.3738 29.0134 45.0938 29.2864 44.8418 29.6084C44.5898 29.9304 44.3938 30.2594 44.2538 30.5954L44.2748 34.5854C44.2748 34.8094 44.2678 35.0824 44.2538 35.4044C44.2398 35.7124 44.2188 36.0134 44.1908 36.3074C44.4148 36.2794 44.6528 36.2654 44.9048 36.2654C45.1568 36.2514 45.3668 36.2444 45.5348 36.2444V37.5884H40.4318V36.4754ZM50.5545 25.3034C50.5545 25.0654 50.5545 24.8064 50.5545 24.5264C50.5685 24.2324 50.5895 23.9314 50.6175 23.6234C50.3935 23.6374 50.1345 23.6514 49.8405 23.6654C49.5605 23.6794 49.3295 23.6934 49.1475 23.7074V22.3424C49.7915 22.3424 50.3165 22.3144 50.7225 22.2584C51.1285 22.1884 51.4435 22.1044 51.6675 22.0064C51.9055 21.9084 52.0735 21.8174 52.1715 21.7334H53.1375V27.9284C53.5855 27.5084 54.0615 27.2074 54.5655 27.0254C55.0695 26.8434 55.5735 26.7524 56.0775 26.7524C56.9455 26.7524 57.7085 26.9694 58.3665 27.4034C59.0385 27.8374 59.5635 28.4534 59.9415 29.2514C60.3195 30.0494 60.5085 30.9874 60.5085 32.0654C60.5085 33.2134 60.2845 34.2284 59.8365 35.1104C59.3885 35.9924 58.7725 36.6854 57.9885 37.1894C57.2045 37.6794 56.3015 37.9244 55.2795 37.9244C54.8735 37.9244 54.3765 37.8404 53.7885 37.6724C53.2145 37.5044 52.6895 37.1684 52.2135 36.6644L51.6255 37.5884H50.5545V25.3034ZM53.1375 34.3964C53.1375 34.9564 53.2285 35.3974 53.4105 35.7194C53.5925 36.0414 53.8235 36.2724 54.1035 36.4124C54.3975 36.5384 54.6915 36.6084 54.9855 36.6224C55.6295 36.6224 56.1475 36.4334 56.5395 36.0554C56.9455 35.6774 57.2395 35.1734 57.4215 34.5434C57.6175 33.8994 57.7155 33.2064 57.7155 32.4644C57.7155 31.7084 57.6245 31.0224 57.4425 30.4064C57.2605 29.7764 56.9805 29.2794 56.6025 28.9154C56.2245 28.5374 55.7275 28.3484 55.1115 28.3484C54.7335 28.3624 54.3695 28.4604 54.0195 28.6424C53.6695 28.8244 53.3755 29.0624 53.1375 29.3564V34.3964ZM67.1481 37.9244C66.1401 37.9244 65.2441 37.7004 64.4601 37.2524C63.6761 36.7904 63.0671 36.1464 62.6331 35.3204C62.1991 34.4804 61.9821 33.4934 61.9821 32.3594C61.9821 31.3794 62.1991 30.4624 62.6331 29.6084C63.0671 28.7544 63.6761 28.0684 64.4601 27.5504C65.2581 27.0184 66.1821 26.7524 67.2321 26.7524C67.8201 26.7524 68.3871 26.8364 68.9331 27.0044C69.4791 27.1724 69.9691 27.4524 70.4031 27.8444C70.8371 28.2364 71.1801 28.7544 71.4321 29.3984C71.6981 30.0424 71.8241 30.8264 71.8101 31.7504L64.7541 31.8764C64.7541 32.7444 64.8521 33.5144 65.0481 34.1864C65.2581 34.8444 65.5941 35.3694 66.0561 35.7614C66.5181 36.1394 67.1271 36.3284 67.8831 36.3284C68.2191 36.3284 68.5761 36.2724 68.9541 36.1604C69.3461 36.0344 69.7311 35.8524 70.1091 35.6144C70.4871 35.3624 70.8231 35.0544 71.1171 34.6904L71.9151 35.4254C71.4531 36.0974 70.9421 36.6154 70.3821 36.9794C69.8221 37.3434 69.2621 37.5884 68.7021 37.7144C68.1421 37.8544 67.6241 37.9244 67.1481 37.9244ZM64.8591 30.6164H69.2271C69.2131 30.0564 69.1291 29.5874 68.9751 29.2094C68.8351 28.8174 68.6251 28.5234 68.3451 28.3274C68.0651 28.1174 67.7221 28.0124 67.3161 28.0124C66.6301 28.0124 66.0771 28.2434 65.6571 28.7054C65.2511 29.1534 64.9851 29.7904 64.8591 30.6164ZM73.4494 36.4754C73.8554 36.4754 74.1424 36.3914 74.3104 36.2234C74.4784 36.0414 74.5834 35.7894 74.6254 35.4674C74.6674 35.1454 74.6884 34.7814 74.6884 34.3754V30.4274C74.6884 30.1754 74.6954 29.9094 74.7094 29.6294C74.7234 29.3494 74.7444 29.0624 74.7724 28.7684C74.5344 28.7824 74.2754 28.7964 73.9954 28.8104C73.7154 28.8104 73.4844 28.8174 73.3024 28.8314V27.4874H74.0794C74.6394 27.4874 75.1084 27.4244 75.4864 27.2984C75.8644 27.1584 76.1304 27.0184 76.2844 26.8784H77.1664C77.1944 27.0464 77.2154 27.3124 77.2294 27.6764C77.2434 28.0404 77.2504 28.4044 77.2504 28.7684C77.5724 28.3484 77.9084 27.9914 78.2584 27.6974C78.6084 27.3894 78.9654 27.1584 79.3294 27.0044C79.7074 26.8364 80.0924 26.7524 80.4844 26.7524C80.9324 26.7524 81.3244 26.8784 81.6604 27.1304C82.0104 27.3824 82.1854 27.7884 82.1854 28.3484C82.1854 28.5304 82.1364 28.7264 82.0384 28.9364C81.9544 29.1464 81.8144 29.3214 81.6184 29.4614C81.4364 29.6014 81.1844 29.6714 80.8624 29.6714C80.5684 29.6714 80.2884 29.5804 80.0224 29.3984C79.7704 29.2024 79.6374 28.8944 79.6234 28.4744C79.3294 28.4604 79.0214 28.5654 78.6994 28.7894C78.3914 29.0134 78.1114 29.2864 77.8594 29.6084C77.6074 29.9304 77.4114 30.2594 77.2714 30.5954L77.2924 34.5854C77.2924 34.8094 77.2854 35.0824 77.2714 35.4044C77.2574 35.7124 77.2364 36.0134 77.2084 36.3074C77.4324 36.2794 77.6704 36.2654 77.9224 36.2654C78.1744 36.2514 78.3844 36.2444 78.5524 36.2444V37.5884H73.4494V36.4754ZM88.0455 37.9244C87.0375 37.9244 86.1415 37.7004 85.3575 37.2524C84.5735 36.7904 83.9645 36.1464 83.5305 35.3204C83.0965 34.4804 82.8795 33.4934 82.8795 32.3594C82.8795 31.3794 83.0965 30.4624 83.5305 29.6084C83.9645 28.7544 84.5735 28.0684 85.3575 27.5504C86.1555 27.0184 87.0795 26.7524 88.1295 26.7524C88.7175 26.7524 89.2845 26.8364 89.8305 27.0044C90.3765 27.1724 90.8665 27.4524 91.3005 27.8444C91.7345 28.2364 92.0775 28.7544 92.3295 29.3984C92.5955 30.0424 92.7215 30.8264 92.7075 31.7504L85.6515 31.8764C85.6515 32.7444 85.7495 33.5144 85.9455 34.1864C86.1555 34.8444 86.4915 35.3694 86.9535 35.7614C87.4155 36.1394 88.0245 36.3284 88.7805 36.3284C89.1165 36.3284 89.4735 36.2724 89.8515 36.1604C90.2435 36.0344 90.6285 35.8524 91.0065 35.6144C91.3845 35.3624 91.7205 35.0544 92.0145 34.6904L92.8125 35.4254C92.3505 36.0974 91.8395 36.6154 91.2795 36.9794C90.7195 37.3434 90.1595 37.5884 89.5995 37.7144C89.0395 37.8544 88.5215 37.9244 88.0455 37.9244ZM85.7565 30.6164H90.1245C90.1105 30.0564 90.0265 29.5874 89.8725 29.2094C89.7325 28.8174 89.5225 28.5234 89.2425 28.3274C88.9625 28.1174 88.6195 28.0124 88.2135 28.0124C87.5275 28.0124 86.9745 28.2434 86.5545 28.7054C86.1485 29.1534 85.8825 29.7904 85.7565 30.6164ZM99.0088 37.9244C98.3648 37.9244 97.7628 37.8404 97.2028 37.6724C96.6428 37.5044 96.1948 37.3014 95.8588 37.0634L95.9218 37.7354H94.5568L94.4518 34.1234H95.5858C95.6278 34.5994 95.7958 35.0334 96.0898 35.4254C96.3838 35.8034 96.7618 36.1044 97.2238 36.3284C97.6998 36.5384 98.2248 36.6434 98.7988 36.6434C99.0788 36.6434 99.3448 36.6014 99.5968 36.5174C99.8628 36.4334 100.08 36.3004 100.248 36.1184C100.43 35.9224 100.521 35.6774 100.521 35.3834C100.521 35.0754 100.416 34.8234 100.206 34.6274C100.01 34.4314 99.7298 34.2494 99.3658 34.0814C99.0018 33.9134 98.5748 33.7384 98.0848 33.5564C97.6508 33.3884 97.2168 33.2134 96.7828 33.0314C96.3488 32.8494 95.9498 32.6324 95.5858 32.3804C95.2218 32.1144 94.9278 31.7924 94.7038 31.4144C94.4798 31.0364 94.3678 30.5744 94.3678 30.0284C94.3678 29.6504 94.4378 29.2724 94.5778 28.8944C94.7178 28.5164 94.9418 28.1664 95.2498 27.8444C95.5578 27.5084 95.9498 27.2424 96.4258 27.0464C96.9158 26.8504 97.5108 26.7524 98.2108 26.7524C98.5888 26.7524 99.0158 26.8154 99.4918 26.9414C99.9678 27.0534 100.388 27.2494 100.752 27.5294L100.731 26.8574H102.096V30.5534H100.962C100.892 30.0634 100.738 29.6294 100.5 29.2514C100.262 28.8594 99.9468 28.5514 99.5548 28.3274C99.1628 28.1034 98.6938 27.9914 98.1478 27.9914C97.6998 27.9914 97.3218 28.1034 97.0138 28.3274C96.7058 28.5374 96.5518 28.8524 96.5518 29.2724C96.5518 29.6224 96.6708 29.9094 96.9088 30.1334C97.1468 30.3574 97.4688 30.5464 97.8748 30.7004C98.2808 30.8544 98.7218 31.0224 99.1978 31.2044C99.8558 31.4284 100.451 31.6944 100.983 32.0024C101.529 32.3104 101.963 32.6814 102.285 33.1154C102.607 33.5494 102.768 34.0884 102.768 34.7324C102.768 35.4604 102.586 36.0624 102.222 36.5384C101.858 37.0004 101.389 37.3504 100.815 37.5884C100.241 37.8124 99.6388 37.9244 99.0088 37.9244Z" fill="#8F624A"/>
</svg>
